<mxfile host="app.diagrams.net" modified="2024-02-20T06:16:52.764Z" agent="Mozilla/5.0 (Macintosh; Intel Mac OS X 10_15_7) AppleWebKit/537.36 (KHTML, like Gecko) Chrome/121.0.0.0 Safari/537.36" version="23.1.3" etag="5m70FQ6CKBF-2DgdLIqa" type="github">
  <diagram name="第 1 页" id="D0FkeBEdYogVM3MNJzL6">
    <mxGraphModel>
      <root>
        <mxCell id="0" />
        <mxCell id="1" parent="0" />
      </root>
    </mxGraphModel>
  </diagram>
</mxfile>
